<?xml version="1.0" encoding="utf-8"?>
<!-- Generator: Adobe Illustrator 15.0.0, SVG Export Plug-In . SVG Version: 6.00 Build 0)  -->
<!DOCTYPE svg PUBLIC "-//W3C//DTD SVG 1.1//EN" "http://www.w3.org/Graphics/SVG/1.1/DTD/svg11.dtd">
<svg version="1.1"  xmlns="http://www.w3.org/2000/svg" xmlns:xlink="http://www.w3.org/1999/xlink" x="0px" y="0px"
	 width="48px" height="48px" viewBox="0 0 48 48" enable-background="new 0 0 48 48" xml:space="preserve">
<polygon fill="#CFD8DC" points="24,42 4,36 24,26 44,32 "/>
<polygon fill="#B0BEC5" points="31.5,28.25 24,32 16.5,29.75 13.89,31.055 23.425,33.916 24.185,34.144 24.895,33.789 
	34.295,29.089 "/>
<polygon fill="#2196F3" points="24,32 4,26 24,16 44,22 "/>
<polygon fill="#CDDC39" points="24,22 4,16 24,6 44,12 "/>
<polygon fill="#1565C0" points="31.5,18.25 24,22 16.5,19.75 13.89,21.055 23.425,23.916 24.185,24.144 24.895,23.789 
	34.295,19.089 "/>
</svg>
