<?xml version="1.0" encoding="UTF-8" standalone="no"?>
<!DOCTYPE svg PUBLIC "-//W3C//DTD SVG 1.1//EN" "http://www.w3.org/Graphics/SVG/1.1/DTD/svg11.dtd">
<svg width="100%" height="100%" viewBox="0 0 540 138" version="1.1" xmlns="http://www.w3.org/2000/svg" xmlns:xlink="http://www.w3.org/1999/xlink" xml:space="preserve" xmlns:serif="http://www.serif.com/" style="fill-rule:evenodd;clip-rule:evenodd;stroke-linejoin:round;stroke-miterlimit:2;">
    <g transform="matrix(1,0,0,1,-130,-87)">
        <path d="M151.02,91.65L156.02,91.65L152.56,98.11L151.02,91.65ZM170.82,91.65L172.91,91.65L173.18,89.97L165.85,89.97L165.58,91.65L168.4,91.65L156.25,113.76L153.29,101.16L158.48,91.65L161.3,91.65L161.53,89.97L144.88,89.97L144.61,91.65L147.52,91.65L150.11,102.48L143.92,113.76L138.69,91.65L141.51,91.65L141.78,89.97L132.54,89.97L132.27,91.65L135.05,91.65L141.97,120.77L142.47,120.77L150.84,105.53L154.53,120.77L154.8,120.77L170.82,91.65Z" style="fill:rgb(0,101,174);fill-rule:nonzero;"/>
    </g>
    <g transform="matrix(1,0,0,1,-130,-87)">
        <path d="M178.32,109.99C177.18,112.17 175.91,113.95 174.5,115.31C174,115.77 173.5,116.17 173.04,116.54C172.31,117 171.58,117.4 171.36,117.4C170.63,117.4 170.13,115.58 170.13,113.12C170.13,106.43 173.32,100.56 176.95,100.56C178.27,100.56 179.36,101.2 180.95,102.88C180.1,106.08 179.41,107.9 178.32,109.99ZM182.74,118.32C184.15,116.96 185.38,115.41 187.15,112.68L185.79,111.82C184.33,114.05 183.52,115.05 181.88,116.6L181.88,115.28C181.88,114.46 181.97,113.37 182.24,111.96L184.56,98.9L182.06,98.9L181.65,100.4C180.01,99.22 179.01,98.85 177.19,98.85C174.14,98.85 172.09,100.08 170,103.13C167.91,106.18 166.63,110.5 166.63,114.41C166.63,118.32 167.54,120.6 169.13,120.6C172.63,120.6 177,116.55 179.41,111.09L179.09,112.96C178.91,113.96 178.77,115.42 178.77,116.46C178.77,117.92 178.91,118.87 179.36,120.42C180.6,120.05 181.42,119.59 182.74,118.32Z" style="fill:rgb(0,101,174);fill-rule:nonzero;"/>
    </g>
    <g transform="matrix(1,0,0,1,-130,-87)">
        <path d="M190.88,120.36C190.47,119.36 190.38,118.9 190.38,118.13C190.38,117.45 190.52,116.08 190.7,114.9L192.75,101.93L188.97,101.93L188.97,101.07L193.11,99.7L194.11,93.28L197.25,93.28L196.2,99.83L200.52,99.83L200.16,101.92L195.88,101.92L193.47,116.89C196.61,114.71 197.34,114.07 199.57,111.79L200.8,112.93C198.34,115.57 196.34,117.34 193.7,119.16C192.66,119.91 192.2,120.09 190.88,120.36Z" style="fill:rgb(0,101,174);fill-rule:nonzero;"/>
    </g>
    <g transform="matrix(1,0,0,1,-130,-87)">
        <path d="M209.22,101.3C210.63,100.71 211.31,100.53 212.22,100.53C213.49,100.53 214.04,101.08 214.04,102.3L214.04,103.44L206.21,108.31C206.85,104.8 207.31,103.71 209.22,101.3ZM216.31,111.86C213.72,115.45 210.71,117.78 208.62,117.78C206.85,117.78 206.03,116.23 206.03,113L206.03,110.59L217.59,103.81L217.59,102.67C217.59,100.49 215.36,98.85 212.45,98.85C207.17,98.85 202.53,105.95 202.53,114.09C202.53,116.55 203.03,118.23 204.35,120.01C205.44,120.24 206.31,120.33 206.9,120.33C210.27,120.33 214.5,117.51 217.73,113.05L216.31,111.86Z" style="fill:rgb(0,101,174);fill-rule:nonzero;"/>
    </g>
    <g transform="matrix(1,0,0,1,-130,-87)">
        <path d="M224.23,120L221.14,120L224.05,101.94L220.23,101.94L220.23,101.08L226.46,98.94L227.6,98.94L226.37,106.63C228.69,102.17 231.78,98.99 233.97,98.99C234.88,98.99 235.47,99.54 236.06,100.81L232.83,104.18C232.01,103.45 231.56,103.18 231.1,103.18C230.19,103.18 228.96,104.5 227.51,107.09C226.24,109.32 225.6,111.37 224.96,115.37L224.23,120Z" style="fill:rgb(0,101,174);fill-rule:nonzero;"/>
    </g>
    <g transform="matrix(1,0,0,1,-130,-87)">
        <path d="M235.29,120L236.2,114.86L237.7,114.86C237.56,115.41 237.52,115.91 237.52,116.27C237.52,117.59 238.88,118.5 240.89,118.5C242.89,118.5 244.58,116.86 244.58,115C244.58,113.59 243.62,112.18 241.71,110.68C237.93,107.81 237.25,106.99 237.25,104.99C237.25,101.62 239.89,99.12 243.35,99.12C243.71,99.12 244.08,99.12 244.44,99.21C245.3,99.35 245.76,99.39 245.85,99.39L248.72,99.39L247.95,104.53L246.54,104.53C246.68,103.94 246.77,103.39 246.77,102.94C246.77,101.8 245.45,100.85 243.81,100.85C241.94,100.85 240.26,102.35 240.26,104.04C240.26,105.4 240.9,106.18 243.81,108.36C246.63,110.5 247.59,111.95 247.59,113.96C247.59,117.51 244.4,120.28 240.4,120.28C239.85,120.28 239.44,120.23 239.08,120.19C238.62,120.05 238.31,120.01 238.26,120.01L235.29,120.01L235.29,120Z" style="fill:rgb(0,101,174);fill-rule:nonzero;"/>
    </g>
    <g transform="matrix(1,0,0,1,-130,-87)">
        <path d="M265.86,113.04C263.36,116.23 262.17,117.41 260.31,118.5C259.4,119.05 258.26,119.5 256.99,119.86C255.49,120.22 254.76,120.36 252.94,120.36C251.35,118.27 250.8,116.72 250.8,114.04C250.8,105.76 255.62,98.8 261.4,98.8C263.54,98.8 265.45,99.53 266.91,100.89L264.41,103.62C264.05,103.12 263.77,102.76 263.59,102.53C262.5,101.12 261.86,100.76 260.63,100.76C259.63,100.76 258.86,100.99 257.17,101.72C254.99,105.54 254.26,107.91 254.26,111.23C254.26,115.37 255.31,117.83 256.99,117.83C258.81,117.83 261.18,116.01 264.63,111.91L265.86,113.04Z" style="fill:rgb(0,101,174);fill-rule:nonzero;"/>
    </g>
    <g transform="matrix(1,0,0,1,-130,-87)">
        <path d="M281.33,120.36C280.87,119.04 280.74,118.4 280.74,117.58C280.74,116.94 280.83,116.08 281.01,114.9L282.6,105.12C282.69,104.39 282.78,103.98 282.78,103.85L282.78,103.49C282.78,102.63 282.51,102.13 282.01,102.13C281.28,102.13 280.37,102.86 278.78,104.59C275.78,107.82 275.41,108.28 274.37,109.91C272.87,112.32 272.32,113.78 271.91,116.37L271.41,120.01L268.32,120.01L273.14,89.48L269.32,89.48L269.32,88.66L275.6,86.48L276.74,86.48L273.19,108.96C275.6,105.27 277.47,103.09 279.79,101.09C281.29,99.82 283.02,98.95 284.11,98.95C285.29,98.95 286.11,100.04 286.11,101.63C286.11,102.13 285.97,103.4 285.75,104.77L283.75,117.06C285.48,115.6 285.93,115.15 287.3,113.33L288.3,111.92L289.67,112.78C287.03,116.51 285.94,117.78 284.3,119.06C283.29,119.77 282.74,120.05 281.33,120.36Z" style="fill:rgb(0,101,174);fill-rule:nonzero;"/>
    </g>
    <g transform="matrix(1,0,0,1,-130,-87)">
        <path d="M303.45,109.99C302.31,112.17 301.04,113.95 299.63,115.31C299.13,115.77 298.63,116.17 298.17,116.54C297.44,117 296.71,117.4 296.49,117.4C295.76,117.4 295.26,115.58 295.26,113.12C295.26,106.43 298.44,100.56 302.09,100.56C303.41,100.56 304.5,101.2 306.09,102.88C305.22,106.08 304.54,107.9 303.45,109.99ZM307.86,118.32C309.27,116.96 310.5,115.41 312.27,112.68L310.91,111.82C309.45,114.05 308.63,115.05 307,116.6L307,115.28C307,114.46 307.09,113.37 307.36,111.96L309.68,98.9L307.18,98.9L306.77,100.4C305.13,99.22 304.13,98.85 302.31,98.85C299.26,98.85 297.21,100.08 295.12,103.13C293.03,106.18 291.75,110.5 291.75,114.41C291.75,118.32 292.66,120.6 294.25,120.6C297.75,120.6 302.12,116.55 304.53,111.09L304.21,112.96C304.03,113.96 303.89,115.42 303.89,116.46C303.89,117.92 304.03,118.87 304.48,120.42C305.72,120.05 306.54,119.59 307.86,118.32Z" style="fill:rgb(0,101,174);fill-rule:nonzero;"/>
    </g>
    <g transform="matrix(1,0,0,1,-130,-87)">
        <path d="M319.6,114.31C319.92,112.04 320.74,110.03 322.15,107.99C324.29,104.85 326.97,102.39 328.2,102.39C329.16,102.39 329.75,103.94 329.75,106.44C329.75,112.81 326.47,118.68 322.88,118.68C321.51,118.68 321.15,118.5 319.24,116.86L319.6,114.31ZM321.33,129.56L317.33,129.56L318.88,119.46C320.2,120.19 321.66,120.6 322.79,120.6C328.39,120.6 333.39,113.64 333.39,105.99C333.39,101.85 332.07,98.85 330.25,98.85C327.88,98.85 323.88,102.26 320.88,106.9L322.2,98.94L321.06,98.94L314.74,101.03L314.74,101.94L318.56,101.94L314.15,129.56L310.78,129.56L310.51,131.06L321.07,131.06L321.33,129.56Z" style="fill:rgb(0,101,174);fill-rule:nonzero;"/>
    </g>
    <g transform="matrix(1,0,0,1,-130,-87)">
        <path d="M373.48,120.5L372.06,120.5L354.59,96.48L354.59,118.32L358.05,118.32L358.05,120L348.86,120L348.86,118.32L352.32,118.32L352.32,93.38L351.09,91.65L347.95,91.65L347.95,89.97L354.55,89.97L371.2,112.81L371.2,91.65L367.74,91.65L367.74,89.97L376.89,89.97L376.89,91.65L373.48,91.65L373.48,120.5Z" style="fill:rgb(0,101,174);fill-rule:nonzero;"/>
    </g>
    <g transform="matrix(1,0,0,1,-130,-87)">
        <path d="M389.08,100.34C392.9,100.34 396,104.39 396,109.49C396,114.63 392.95,118.68 389.08,118.68C385.26,118.68 382.21,114.58 382.21,109.44C382.21,104.39 385.25,100.34 389.08,100.34ZM389.12,120.59C394.85,120.59 399.86,115.4 399.86,109.44C399.86,103.57 394.86,98.43 389.12,98.43C383.3,98.43 378.29,103.53 378.29,109.44C378.29,115.45 383.3,120.59 389.12,120.59Z" style="fill:rgb(0,101,174);fill-rule:nonzero;"/>
    </g>
    <g transform="matrix(1,0,0,1,-130,-87)">
        <path d="M414.28,100.34C418.1,100.34 421.2,104.39 421.2,109.49C421.2,114.63 418.15,118.68 414.28,118.68C410.46,118.68 407.41,114.58 407.41,109.44C407.41,104.39 410.46,100.34 414.28,100.34ZM414.33,120.59C420.06,120.59 425.07,115.4 425.07,109.44C425.07,103.57 420.07,98.43 414.33,98.43C408.51,98.43 403.5,103.53 403.5,109.44C403.5,115.45 408.5,120.59 414.33,120.59Z" style="fill:rgb(0,101,174);fill-rule:nonzero;"/>
    </g>
    <g transform="matrix(1,0,0,1,-130,-87)">
        <path d="M435.44,100.8L438.62,100.8C440.99,100.8 442.26,102.21 442.26,104.76C442.26,107.26 440.85,108.95 438.67,108.95L435.44,108.95L435.44,100.8ZM449.36,118.32L448.09,118.32C447.09,118.32 446.27,117.77 445.45,116.64L441.22,110.45C444.22,109.9 446.09,107.67 446.09,104.63C446.09,100.94 443.72,98.99 439.31,98.99L428.57,98.99L428.57,100.81L431.98,100.81L431.98,118.33L428.57,118.33L428.57,120L438.85,120L438.85,118.32L435.44,118.32L435.44,110.77L437.67,110.77L442.54,118.1C443.68,119.83 444.04,120.01 446.04,120.01L449.36,120.01L449.36,118.32Z" style="fill:rgb(0,101,174);fill-rule:nonzero;"/>
    </g>
    <g transform="matrix(1,0,0,1,-130,-87)">
        <path d="M459.33,118.18L459.33,100.8L462.92,100.8C467.11,100.8 470.34,104.62 470.34,109.54C470.34,114.45 467.11,118.18 462.88,118.18L459.33,118.18ZM452.46,120L463.24,120C469.52,120 474.25,115.5 474.25,109.49C474.25,103.62 469.43,98.98 463.24,98.98L452.46,98.98L452.46,100.66L455.87,100.66L455.87,118.31L452.46,118.31L452.46,120Z" style="fill:rgb(0,101,174);fill-rule:nonzero;"/>
    </g>
    <g transform="matrix(1,0,0,1,-130,-87)">
        <path d="M493.81,120L477.52,120L477.52,118.32L480.93,118.32L480.93,100.67L477.52,100.67L477.52,98.99L491.81,98.99L491.81,98.08L493.49,98.08L493.49,103.18L491.85,103.18L491.85,100.81L484.39,100.81L484.39,108.41L490.21,108.41L490.21,106.23L491.89,106.18L491.89,112.5L490.21,112.5L490.21,110.23L484.39,110.23L484.39,118.19L492.12,118.19L492.12,115.78L493.8,115.78L493.8,120L493.81,120Z" style="fill:rgb(0,101,174);fill-rule:nonzero;"/>
    </g>
    <g transform="matrix(1,0,0,1,-130,-87)">
        <path d="M505.05,100.8L508.24,100.8C510.61,100.8 511.88,102.21 511.88,104.76C511.88,107.26 510.47,108.95 508.29,108.95L505.06,108.95L505.06,100.8L505.05,100.8ZM518.98,118.32L517.71,118.32C516.71,118.32 515.89,117.77 515.07,116.64L510.84,110.45C513.84,109.9 515.71,107.67 515.71,104.63C515.71,100.94 513.34,98.99 508.93,98.99L498.19,98.99L498.19,100.81L501.6,100.81L501.6,118.33L498.19,118.33L498.19,120L508.47,120L508.47,118.32L505.06,118.32L505.06,110.77L507.29,110.77L512.16,118.1C513.3,119.83 513.66,120.01 515.66,120.01L518.98,120.01L518.98,118.32Z" style="fill:rgb(0,101,174);fill-rule:nonzero;"/>
    </g>
    <g transform="matrix(1,0,0,1,-130,-87)">
        <path d="M539.4,120L520.97,120L520.97,119.04L533.98,100.79L522.6,100.79L522.6,103.16L520.96,103.16L520.96,98.06L522.6,98.06L522.6,98.97L538.75,98.97L538.75,99.97L525.65,118.17L537.75,118.17L537.75,115.08L539.39,115.08L539.39,120L539.4,120Z" style="fill:rgb(0,101,174);fill-rule:nonzero;"/>
    </g>
    <g transform="matrix(1,0,0,1,-130,-87)">
        <path d="M553.55,120L543.27,120L543.27,118.32L546.68,118.32L546.68,100.8L543.27,100.8L543.27,98.98L553.55,98.98L553.55,100.8L550.14,100.8L550.14,118.32L553.55,118.32L553.55,120Z" style="fill:rgb(0,101,174);fill-rule:nonzero;"/>
    </g>
    <g transform="matrix(1,0,0,1,-130,-87)">
        <path d="M563.7,120.55C561.65,124.51 560.97,125.42 558.15,127.97L557.01,126.79C559.79,123.7 560.29,122.24 560.29,117.01L560.29,100.81L556.83,100.81L556.83,98.99L567.16,98.99L567.16,100.81L563.7,100.81L563.7,120.55Z" style="fill:rgb(0,101,174);fill-rule:nonzero;"/>
    </g>
    <g transform="matrix(1,0,0,1,-130,-87)">
        <path d="M587.04,120L570.89,120L570.89,118.32L574.3,118.32L574.3,100.8L570.89,100.8L570.89,98.98L581.17,98.98L581.17,100.8L577.76,100.8L577.76,118.18L585.4,118.18L585.4,115.4L587.04,115.4L587.04,120Z" style="fill:rgb(0,101,174);fill-rule:nonzero;"/>
    </g>
    <g transform="matrix(1,0,0,1,-130,-87)">
        <path d="M597.05,120.55L595.96,120.55L587.77,100.8L585.54,100.8L585.54,98.98L594.37,98.98L594.37,100.8L591.5,100.8L597.37,114.86L603.1,100.8L600.51,100.8L600.51,98.98L607.11,98.98L607.11,100.8L605.2,100.8L597.05,120.55Z" style="fill:rgb(0,101,174);fill-rule:nonzero;"/>
    </g>
    <g transform="matrix(1,0,0,1,-130,-87)">
        <path d="M625.63,120L609.34,120L609.34,118.32L612.75,118.32L612.75,100.67L609.34,100.67L609.34,98.99L623.63,98.99L623.63,98.08L625.31,98.08L625.31,103.18L623.67,103.18L623.67,100.81L616.21,100.81L616.21,108.41L622.03,108.41L622.03,106.23L623.71,106.18L623.71,112.5L622.03,112.5L622.03,110.23L616.21,110.23L616.21,118.19L623.95,118.19L623.95,115.78L625.63,115.78L625.63,120Z" style="fill:rgb(0,101,174);fill-rule:nonzero;"/>
    </g>
    <g transform="matrix(1,0,0,1,-130,-87)">
        <path d="M632.05,120.27L630.36,120.27L630.36,114.58L632.04,114.58L632.04,116.95C633.86,118.04 635.13,118.45 636.68,118.45C638.96,118.45 640.59,117.18 640.59,115.4C640.59,113.67 639.36,112.49 635.59,110.58C631.59,108.58 630.22,106.99 630.22,104.3C630.22,101.02 633.09,98.43 636.73,98.43C638.23,98.43 639.55,98.75 640.87,99.48L640.87,98.34L642.55,98.34L642.55,103.8L640.87,103.8L640.87,101.52C639.09,100.56 638.28,100.34 637.05,100.34C634.91,100.34 633.5,101.52 633.5,103.39C633.5,104.57 634,105.21 635.55,106.12C636.73,106.8 637.83,107.44 638.78,107.99C642.69,110.17 643.79,111.63 643.79,114.59C643.79,118 640.97,120.6 637.19,120.6C635.46,120.6 633.82,120.1 632.05,119.1L632.05,120.27Z" style="fill:rgb(0,101,174);fill-rule:nonzero;"/>
    </g>
    <g transform="matrix(1,0,0,1,-130,-87)">
        <path d="M661.58,120L650.38,120L650.38,118.32L654.25,118.32L654.25,100.8L647.61,100.8L647.61,103.35L645.97,103.35L645.97,98.07L647.61,98.07L647.61,98.98L664.35,98.98L664.35,98.07L666.03,98.07L666.03,103.35L664.35,103.35L664.35,100.8L657.71,100.8L657.71,118.32L661.58,118.32L661.58,120Z" style="fill:rgb(0,101,174);fill-rule:nonzero;"/>
    </g>
    <g transform="matrix(1,0,0,1,-130,-87)">
        <path d="M525.98,169.11C533.2,163.54 541.81,154.78 541.81,154.78C565.31,155.03 581.11,155.16 586.17,154.87C586.17,154.87 628.7,154.53 659.19,149.44C666.04,173.75 668.23,176.88 668.23,176.88C651.47,165.38 595.49,166.61 595.49,166.61L567.6,167.2C566.25,158.31 549.53,158.6 548.25,167.97C548.24,167.96 533.72,168.28 525.98,169.11Z" style="fill:rgb(0,154,128);fill-rule:nonzero;"/>
    </g>
    <g transform="matrix(1,0,0,1,-130,-87)">
        <path d="M661.99,193.94C663.75,196.36 665.39,198.83 666.88,201.63L666.48,201.84C645.69,211.52 625.41,221.87 625.41,221.87C623.5,209.88 618.19,202.72 618.19,202.72C604.18,183.18 559.65,206.5 559.11,206.78C554.96,208.97 554.63,209.14 554.63,209.14C524.26,225.06 521.21,212.79 521.21,212.79C519.29,207.44 522.42,200.86 528.01,193.84C528.01,193.84 542.16,177.14 556.91,165.64C556.91,165.64 557.88,166.34 559.45,166.83C559.45,166.83 549.89,178.76 541.02,193.85C540.06,195.49 539.17,197.13 538.27,198.78C536.64,202.11 539.78,199.84 539.78,199.84C543.16,197.63 546.35,195.64 549.34,193.85C549.34,193.85 566.84,182.98 587.9,176.12C597.21,173.09 616.03,171.42 623.27,172.45C623.27,172.45 635.57,173.45 645.09,178.01C654.1,182.33 661.99,193.94 661.99,193.94Z" style="fill:rgb(0,101,174);fill-rule:nonzero;"/>
    </g>
</svg>
