<svg xmlns="http://www.w3.org/2000/svg" width="233" height="70" viewBox="0 0 233 70">
  <title>logo-header-2</title>
  <g id="Layer_2" data-name="Layer 2">
    <rect width="233" height="70" style="fill: #fff"/>
  </g>
  <g id="Layer_1" data-name="Layer 1">
    <g>
      <path d="M109.4,22.2h4.5v1.4h-1.2l2.6,7.7a9.3,9.3,0,0,0,.4,1.3h0l.3-1.3,2.2-5.8-.7-1.9h-1.2V22.2h4.4v1.4h-1.2l2.4,7.6.3,1.4h0a10.3,10.3,0,0,0,.4-1.4l2.6-7.6h-1.3V22.2h4.3v1.4h-1l-4,10.6H121l-2-6.4h-.1l-2.4,6.4h-2.1l-3.9-10.6h-1.1Z" style="fill: #005896"/>
      <path d="M130,31.7c0-1.4,1.7-1.4,3.7-1.5v.4a2.3,2.3,0,0,1-2.3,2.3,1.3,1.3,0,0,1-1.4-1.2m-1.6-3.6h1.8V26.8a3.2,3.2,0,0,1,1.6-.3c1.6,0,1.9.7,1.9,1.8V29h-1.8c-1.4.1-3.8.4-3.8,2.7a2.5,2.5,0,0,0,2.8,2.6,2.9,2.9,0,0,0,3-2.1h0a12.1,12.1,0,0,0-.1,1.9h2.8V32.8h-1.2c0-1.5.1-2.9.1-4.3S134.6,25,132,25a6.9,6.9,0,0,0-3.6.9Z" style="fill: #005896"/>
      <path d="M137.3,25.3h1.4V23.2h2v2.2h2.6v1.4h-2.6v4.1c0,1.7.3,2.1,1.2,2.1a3.7,3.7,0,0,0,1.5-.4v1.4a3.6,3.6,0,0,1-1.9.5c-1.9,0-2.6-.8-2.6-2.8V26.7h-1.4Z" style="fill: #005896"/>
      <path d="M145.8,28.7a2.1,2.1,0,0,1,2.3-2.2,2,2,0,0,1,2.1,2v.2Zm5.9,3.5a5.8,5.8,0,0,1-2.8.7,2.8,2.8,0,0,1-3.1-2.9h6.4v-.2c0-2.8-1.4-4.8-4-4.8s-4.4,2.1-4.4,4.7a4.4,4.4,0,0,0,4.7,4.7,9.9,9.9,0,0,0,3.1-.6Z" style="fill: #005896"/>
      <path d="M153.5,32.8h1.1V26.7h-1.4V25.3h3.2a21.8,21.8,0,0,1-.1,2.4h0c.4-1.7,1.4-2.7,2.6-2.7H160l-.2,1.7h-.9c-1.7,0-2.4,1.6-2.4,3.2v2.8h1.3v1.4h-4.3Z" style="fill: #005896"/>
      <path d="M166,27.8V26.7a4.4,4.4,0,0,0-1.5-.2c-.9,0-1.8.2-1.8,1s.6.9,1.1,1l2.2.5c1,.2,2.2.6,2.2,2.4s-2.1,3-4,3a8,8,0,0,1-3.3-.6V31.4h1.7v1.2a6.1,6.1,0,0,0,1.9.4c1,0,1.9-.4,1.9-1.3s-.6-1-1.3-1.1l-1.5-.3c-1.3-.2-2.8-.7-2.8-2.4s1.8-2.9,3.8-2.9a12.9,12.9,0,0,1,3.1.6v2.2Z" style="fill: #005896"/>
      <path d="M175.3,26.7h-1.2c-1.7,0-2.6,1.3-2.6,3a2.9,2.9,0,0,0,3.1,3.2,7.1,7.1,0,0,0,2.3-.5v1.6a6.3,6.3,0,0,1-2.5.5c-3.5,0-4.8-2.4-4.8-4.6a4.5,4.5,0,0,1,4.8-4.8,5.7,5.7,0,0,1,2.6.5V28h-1.6Z" style="fill: #005896"/>
      <path d="M178,32.8h1V22.4h-1.3V21h3.3v4.3a13.7,13.7,0,0,1-.2,1.9h0A3.3,3.3,0,0,1,184,25c2.1,0,3.1,1.4,3.1,3.5s-.1,2.8-.1,4.3h1.2v1.4h-4.1V32.8h1c0-1.3.1-2.7.1-4s-.6-2.1-1.8-2.1-2.3,1-2.4,2.7v3.4h1.2v1.4H178Z" style="fill: #005896"/>
      <path d="M191.5,31.7c0-1.4,1.8-1.4,3.8-1.5v.4a2.3,2.3,0,0,1-2.3,2.3,1.4,1.4,0,0,1-1.5-1.2M190,28.1h1.7V26.8a3.5,3.5,0,0,1,1.6-.3c1.6,0,2,.7,2,1.8V29h-1.8c-1.5.1-3.9.4-3.9,2.7s.7,2.6,2.9,2.6a2.8,2.8,0,0,0,2.9-2.1h.1a12.3,12.3,0,0,0-.2,1.9h2.8V32.8h-1.2c.1-1.5.1-2.9.1-4.3s-.8-3.5-3.5-3.5a6.5,6.5,0,0,0-3.5.9Z" style="fill: #005896"/>
      <path d="M202.4,30c0-2.1.7-3.3,2.3-3.3s2.2,1.2,2.2,2.9-1,3.3-2.8,3.3a3.9,3.9,0,0,1-1.7-.4Zm-3.2-3.3h1.3V37.1h-1v1.4h4.3V37.1h-1.4v-3a4.8,4.8,0,0,0,1.8.3c3,0,4.8-2.2,4.8-5.1s-1.6-4.3-3.8-4.3a2.9,2.9,0,0,0-2.9,2.1h-.1a9.9,9.9,0,0,0,.2-1.8h-3.1Z" style="fill: #005896"/>
      <path d="M100,49.8H95.4l1.9-5a9,9,0,0,0,.5-1.6h0a9,9,0,0,0,.5,1.6ZM88.6,58.5h6.2V56.4H92.9L94.6,52h6.2l1.5,4.4h-1.6v2.1h6.4V56.4h-1.6L99.6,40.9H96.5L90.1,56.4H88.6Z" style="fill: #005896"/>
      <path d="M111.2,54.8c0-1.9,2.5-2.1,5.4-2.1v.5a3.1,3.1,0,0,1-3.3,3.3c-1.4,0-2.1-.7-2.1-1.7m-2.3-5.3h2.5V47.6a7,7,0,0,1,2.4-.4c2.3,0,2.9,1.1,2.9,2.7v1H114c-2.1.1-5.6.6-5.6,4,0,1.7,1,3.8,4.2,3.8a4.2,4.2,0,0,0,4.3-3.1h0a26.4,26.4,0,0,0-.2,2.8h4.2V56.4h-1.8c0-2.1.1-4.2.1-6.3s-1.2-5-5.1-5a11.6,11.6,0,0,0-5.2,1.2Z" style="fill: #005896"/>
      <path d="M132.2,50.5c.1-1.6.9-3.3,3.3-3.3a2.9,2.9,0,0,1,3.1,3v.3Zm8.7,5a9.3,9.3,0,0,1-4.2,1c-2.6,0-4.5-1.6-4.5-4.1h9.3V52c0-4-1.9-6.9-5.9-6.9s-6.4,3-6.4,6.9,2.6,6.7,6.9,6.8a11.7,11.7,0,0,0,4.6-1Z" style="fill: #005896"/>
      <path d="M143,56.4h1.5V47.5h-1.9V45.4h4.7a15.9,15.9,0,0,1-.3,2.9h.1a4.5,4.5,0,0,1,4.6-3.2c3,0,4.5,1.9,4.5,5s-.1,4.2-.1,6.3h1.7v2.1h-6V56.4h1.5c0-1.9.1-3.8.1-5.8s-.8-3.1-2.6-3.1-3.4,1.5-3.5,3.9v5h1.8v2.1H143Z" style="fill: #005896"/>
      <path d="M166,56.4h1.7V42.9h-1.9v-2h5.7L176.7,54a5.7,5.7,0,0,1,.4,1.4h.1a5.7,5.7,0,0,1,.4-1.4l5-13.1h5.5v2H186V56.4h2v2.1h-6.4V56.4h1.7V44.5h-.1a20.2,20.2,0,0,1-.7,2.3l-4.5,11.7h-2.8L171,47.3a26.8,26.8,0,0,1-.7-2.7h-.1V56.4h2v2.1H166Z" style="fill: #005896"/>
      <path d="M192.6,54.8c0-1.9,2.6-2.1,5.5-2.1v.5a3.2,3.2,0,0,1-3.4,3.3c-1.3,0-2.1-.7-2.1-1.7m-2.2-5.3h2.5V47.6a6.3,6.3,0,0,1,2.3-.4c2.3,0,2.9,1.1,2.9,2.7v1h-2.7c-2.1.1-5.6.6-5.6,4,0,1.7,1,3.8,4.2,3.8a4.2,4.2,0,0,0,4.3-3.1h.1a13.3,13.3,0,0,0-.3,2.8h4.2V56.4h-1.8c.1-2.1.1-4.2.1-6.3s-1.2-5-5.1-5a11.1,11.1,0,0,0-5.1,1.2Z" style="fill: #005896"/>
      <path d="M207.1,54.8c0-1.9,2.5-2.1,5.4-2.1v.5a3.2,3.2,0,0,1-3.4,3.3c-1.3,0-2-.7-2-1.7m-2.3-5.3h2.5V47.6a6.5,6.5,0,0,1,2.4-.4c2.3,0,2.8,1.1,2.8,2.7v1h-2.6c-2.2.1-5.7.6-5.7,4,0,1.7,1.1,3.8,4.2,3.8a4.2,4.2,0,0,0,4.3-3.1h.1a13.2,13.2,0,0,0-.2,2.8h4.1V56.4H215c0-2.1.1-4.2.1-6.3s-1.3-5-5.1-5a11.6,11.6,0,0,0-5.2,1.2Z" style="fill: #005896"/>
      <path d="M226,49.1V47.6a4.5,4.5,0,0,0-2.1-.4c-1.3,0-2.7.3-2.7,1.5s.9,1.3,1.7,1.5l3.2.6c1.5.3,3.1.9,3.1,3.6s-2.9,4.4-5.8,4.4a15,15,0,0,1-4.8-.8V54.4H221v1.8a9.1,9.1,0,0,0,2.7.5c1.4,0,2.7-.5,2.7-1.8s-.9-1.5-1.9-1.7l-2.1-.4c-2-.3-4.2-1.1-4.2-3.6s2.7-4.1,5.6-4.1a12.4,12.4,0,0,1,4.5.9v3.1Z" style="fill: #005896"/>
      <path d="M68,23.9c2.3,3.1,9.6,9,20,11.4L72.7,49.6C65,47.3,55.9,39.5,52.3,35.4Z" style="fill: #7dc242"/>
      <path d="M21.4,34.8C30.2,36.6,37.6,48,41.2,51.3L40.9,44,19.2,26.6l2.1,8.2Z" style="fill: #7dc242"/>
      <polygon points="34.6 18.4 36.1 40.1 39.1 42.5 55.1 31.2 57 5.7 34.6 18.4" style="fill: #e03a3e"/>
      <path d="M59.4,30.2l3.5-2.6c-2.9-2.4-5.6-4.4-7.1-5.5l-.3,4.3a33.2,33.2,0,0,1,3.9,3.8" style="fill: #005896"/>
      <path d="M56.6,39.6,41.4,51.5c-3.6-3.2-11.1-14.9-20-16.7L17,37.5C31.1,41.9,33.1,59.3,48.3,65L67.9,47.6a55.8,55.8,0,0,1-11.3-8" style="fill: #005896"/>
    </g>
  </g>
</svg>
